# xmcd
#
# Track frame offsets:
#	150
#	22146
#	43796
#	62673
#
# Disc length: 1145 seconds
#
# Revision: 0
# Processed by: cddbd v1.5.2PL0 Copyright (c) Steve Scherf et al.
# Submitted via: EasyCDDAExtractor 15.2.5.1
#
DISCID=32047704
DTITLE=Will Downing - Yesterday
DYEAR=2011
DGENRE=Soul
TTITLE0=La La Means I Love You
TTITLE1=Send For Me
TTITLE2=This time I'll Be Sweeter
TTITLE3=Ooh Baby Baby
EXTD=
EXTT0=
EXTT1=
EXTT2=
EXTT3=
PLAYORDER=
